<svg xmlns:svg="http://www.w3.org/2000/svg" xmlns="http://www.w3.org/2000/svg" viewBox="0 0 37 37" width="100%" height="100%" fill="#ffffff" xmlns:xlink="http://www.w3.org/1999/xlink"><rect fill="#ffffff" width="100%" height="100%"></rect><rect fill="#000000" x="2" y="2" width="1" height="1" id="template"></rect><use x="0" y="0" xlink:href="#template"></use><use x="1" y="0" xlink:href="#template"></use><use x="2" y="0" xlink:href="#template"></use><use x="3" y="0" xlink:href="#template"></use><use x="4" y="0" xlink:href="#template"></use><use x="5" y="0" xlink:href="#template"></use><use x="6" y="0" xlink:href="#template"></use><use x="8" y="0" xlink:href="#template"></use><use x="10" y="0" xlink:href="#template"></use><use x="13" y="0" xlink:href="#template"></use><use x="15" y="0" xlink:href="#template"></use><use x="16" y="0" xlink:href="#template"></use><use x="17" y="0" xlink:href="#template"></use><use x="23" y="0" xlink:href="#template"></use><use x="24" y="0" xlink:href="#template"></use><use x="26" y="0" xlink:href="#template"></use><use x="27" y="0" xlink:href="#template"></use><use x="28" y="0" xlink:href="#template"></use><use x="29" y="0" xlink:href="#template"></use><use x="30" y="0" xlink:href="#template"></use><use x="31" y="0" xlink:href="#template"></use><use x="32" y="0" xlink:href="#template"></use><use x="0" y="1" xlink:href="#template"></use><use x="6" y="1" xlink:href="#template"></use><use x="8" y="1" xlink:href="#template"></use><use x="12" y="1" xlink:href="#template"></use><use x="16" y="1" xlink:href="#template"></use><use x="17" y="1" xlink:href="#template"></use><use x="22" y="1" xlink:href="#template"></use><use x="24" y="1" xlink:href="#template"></use><use x="26" y="1" xlink:href="#template"></use><use x="32" y="1" xlink:href="#template"></use><use x="0" y="2" xlink:href="#template"></use><use x="2" y="2" xlink:href="#template"></use><use x="3" y="2" xlink:href="#template"></use><use x="4" y="2" xlink:href="#template"></use><use x="6" y="2" xlink:href="#template"></use><use x="8" y="2" xlink:href="#template"></use><use x="9" y="2" xlink:href="#template"></use><use x="10" y="2" xlink:href="#template"></use><use x="12" y="2" xlink:href="#template"></use><use x="14" y="2" xlink:href="#template"></use><use x="15" y="2" xlink:href="#template"></use><use x="16" y="2" xlink:href="#template"></use><use x="18" y="2" xlink:href="#template"></use><use x="21" y="2" xlink:href="#template"></use><use x="23" y="2" xlink:href="#template"></use><use x="24" y="2" xlink:href="#template"></use><use x="26" y="2" xlink:href="#template"></use><use x="28" y="2" xlink:href="#template"></use><use x="29" y="2" xlink:href="#template"></use><use x="30" y="2" xlink:href="#template"></use><use x="32" y="2" xlink:href="#template"></use><use x="0" y="3" xlink:href="#template"></use><use x="2" y="3" xlink:href="#template"></use><use x="3" y="3" xlink:href="#template"></use><use x="4" y="3" xlink:href="#template"></use><use x="6" y="3" xlink:href="#template"></use><use x="9" y="3" xlink:href="#template"></use><use x="12" y="3" xlink:href="#template"></use><use x="14" y="3" xlink:href="#template"></use><use x="15" y="3" xlink:href="#template"></use><use x="17" y="3" xlink:href="#template"></use><use x="19" y="3" xlink:href="#template"></use><use x="22" y="3" xlink:href="#template"></use><use x="23" y="3" xlink:href="#template"></use><use x="24" y="3" xlink:href="#template"></use><use x="26" y="3" xlink:href="#template"></use><use x="28" y="3" xlink:href="#template"></use><use x="29" y="3" xlink:href="#template"></use><use x="30" y="3" xlink:href="#template"></use><use x="32" y="3" xlink:href="#template"></use><use x="0" y="4" xlink:href="#template"></use><use x="2" y="4" xlink:href="#template"></use><use x="3" y="4" xlink:href="#template"></use><use x="4" y="4" xlink:href="#template"></use><use x="6" y="4" xlink:href="#template"></use><use x="9" y="4" xlink:href="#template"></use><use x="10" y="4" xlink:href="#template"></use><use x="13" y="4" xlink:href="#template"></use><use x="14" y="4" xlink:href="#template"></use><use x="16" y="4" xlink:href="#template"></use><use x="17" y="4" xlink:href="#template"></use><use x="18" y="4" xlink:href="#template"></use><use x="26" y="4" xlink:href="#template"></use><use x="28" y="4" xlink:href="#template"></use><use x="29" y="4" xlink:href="#template"></use><use x="30" y="4" xlink:href="#template"></use><use x="32" y="4" xlink:href="#template"></use><use x="0" y="5" xlink:href="#template"></use><use x="6" y="5" xlink:href="#template"></use><use x="8" y="5" xlink:href="#template"></use><use x="9" y="5" xlink:href="#template"></use><use x="10" y="5" xlink:href="#template"></use><use x="11" y="5" xlink:href="#template"></use><use x="13" y="5" xlink:href="#template"></use><use x="14" y="5" xlink:href="#template"></use><use x="15" y="5" xlink:href="#template"></use><use x="17" y="5" xlink:href="#template"></use><use x="18" y="5" xlink:href="#template"></use><use x="21" y="5" xlink:href="#template"></use><use x="23" y="5" xlink:href="#template"></use><use x="24" y="5" xlink:href="#template"></use><use x="26" y="5" xlink:href="#template"></use><use x="32" y="5" xlink:href="#template"></use><use x="0" y="6" xlink:href="#template"></use><use x="1" y="6" xlink:href="#template"></use><use x="2" y="6" xlink:href="#template"></use><use x="3" y="6" xlink:href="#template"></use><use x="4" y="6" xlink:href="#template"></use><use x="5" y="6" xlink:href="#template"></use><use x="6" y="6" xlink:href="#template"></use><use x="8" y="6" xlink:href="#template"></use><use x="10" y="6" xlink:href="#template"></use><use x="12" y="6" xlink:href="#template"></use><use x="14" y="6" xlink:href="#template"></use><use x="16" y="6" xlink:href="#template"></use><use x="18" y="6" xlink:href="#template"></use><use x="20" y="6" xlink:href="#template"></use><use x="22" y="6" xlink:href="#template"></use><use x="24" y="6" xlink:href="#template"></use><use x="26" y="6" xlink:href="#template"></use><use x="27" y="6" xlink:href="#template"></use><use x="28" y="6" xlink:href="#template"></use><use x="29" y="6" xlink:href="#template"></use><use x="30" y="6" xlink:href="#template"></use><use x="31" y="6" xlink:href="#template"></use><use x="32" y="6" xlink:href="#template"></use><use x="8" y="7" xlink:href="#template"></use><use x="10" y="7" xlink:href="#template"></use><use x="13" y="7" xlink:href="#template"></use><use x="14" y="7" xlink:href="#template"></use><use x="15" y="7" xlink:href="#template"></use><use x="17" y="7" xlink:href="#template"></use><use x="18" y="7" xlink:href="#template"></use><use x="19" y="7" xlink:href="#template"></use><use x="20" y="7" xlink:href="#template"></use><use x="21" y="7" xlink:href="#template"></use><use x="22" y="7" xlink:href="#template"></use><use x="23" y="7" xlink:href="#template"></use><use x="2" y="8" xlink:href="#template"></use><use x="3" y="8" xlink:href="#template"></use><use x="4" y="8" xlink:href="#template"></use><use x="6" y="8" xlink:href="#template"></use><use x="8" y="8" xlink:href="#template"></use><use x="11" y="8" xlink:href="#template"></use><use x="12" y="8" xlink:href="#template"></use><use x="14" y="8" xlink:href="#template"></use><use x="18" y="8" xlink:href="#template"></use><use x="20" y="8" xlink:href="#template"></use><use x="23" y="8" xlink:href="#template"></use><use x="25" y="8" xlink:href="#template"></use><use x="26" y="8" xlink:href="#template"></use><use x="27" y="8" xlink:href="#template"></use><use x="30" y="8" xlink:href="#template"></use><use x="31" y="8" xlink:href="#template"></use><use x="32" y="8" xlink:href="#template"></use><use x="3" y="9" xlink:href="#template"></use><use x="4" y="9" xlink:href="#template"></use><use x="5" y="9" xlink:href="#template"></use><use x="12" y="9" xlink:href="#template"></use><use x="16" y="9" xlink:href="#template"></use><use x="17" y="9" xlink:href="#template"></use><use x="18" y="9" xlink:href="#template"></use><use x="20" y="9" xlink:href="#template"></use><use x="21" y="9" xlink:href="#template"></use><use x="22" y="9" xlink:href="#template"></use><use x="23" y="9" xlink:href="#template"></use><use x="25" y="9" xlink:href="#template"></use><use x="26" y="9" xlink:href="#template"></use><use x="29" y="9" xlink:href="#template"></use><use x="32" y="9" xlink:href="#template"></use><use x="1" y="10" xlink:href="#template"></use><use x="2" y="10" xlink:href="#template"></use><use x="3" y="10" xlink:href="#template"></use><use x="5" y="10" xlink:href="#template"></use><use x="6" y="10" xlink:href="#template"></use><use x="8" y="10" xlink:href="#template"></use><use x="10" y="10" xlink:href="#template"></use><use x="12" y="10" xlink:href="#template"></use><use x="14" y="10" xlink:href="#template"></use><use x="15" y="10" xlink:href="#template"></use><use x="18" y="10" xlink:href="#template"></use><use x="19" y="10" xlink:href="#template"></use><use x="21" y="10" xlink:href="#template"></use><use x="24" y="10" xlink:href="#template"></use><use x="26" y="10" xlink:href="#template"></use><use x="27" y="10" xlink:href="#template"></use><use x="29" y="10" xlink:href="#template"></use><use x="30" y="10" xlink:href="#template"></use><use x="31" y="10" xlink:href="#template"></use><use x="0" y="11" xlink:href="#template"></use><use x="1" y="11" xlink:href="#template"></use><use x="2" y="11" xlink:href="#template"></use><use x="3" y="11" xlink:href="#template"></use><use x="4" y="11" xlink:href="#template"></use><use x="5" y="11" xlink:href="#template"></use><use x="7" y="11" xlink:href="#template"></use><use x="8" y="11" xlink:href="#template"></use><use x="16" y="11" xlink:href="#template"></use><use x="18" y="11" xlink:href="#template"></use><use x="19" y="11" xlink:href="#template"></use><use x="21" y="11" xlink:href="#template"></use><use x="22" y="11" xlink:href="#template"></use><use x="30" y="11" xlink:href="#template"></use><use x="31" y="11" xlink:href="#template"></use><use x="32" y="11" xlink:href="#template"></use><use x="0" y="12" xlink:href="#template"></use><use x="1" y="12" xlink:href="#template"></use><use x="5" y="12" xlink:href="#template"></use><use x="6" y="12" xlink:href="#template"></use><use x="7" y="12" xlink:href="#template"></use><use x="9" y="12" xlink:href="#template"></use><use x="10" y="12" xlink:href="#template"></use><use x="16" y="12" xlink:href="#template"></use><use x="17" y="12" xlink:href="#template"></use><use x="18" y="12" xlink:href="#template"></use><use x="19" y="12" xlink:href="#template"></use><use x="20" y="12" xlink:href="#template"></use><use x="21" y="12" xlink:href="#template"></use><use x="24" y="12" xlink:href="#template"></use><use x="25" y="12" xlink:href="#template"></use><use x="31" y="12" xlink:href="#template"></use><use x="0" y="13" xlink:href="#template"></use><use x="2" y="13" xlink:href="#template"></use><use x="4" y="13" xlink:href="#template"></use><use x="7" y="13" xlink:href="#template"></use><use x="10" y="13" xlink:href="#template"></use><use x="11" y="13" xlink:href="#template"></use><use x="16" y="13" xlink:href="#template"></use><use x="17" y="13" xlink:href="#template"></use><use x="20" y="13" xlink:href="#template"></use><use x="22" y="13" xlink:href="#template"></use><use x="23" y="13" xlink:href="#template"></use><use x="24" y="13" xlink:href="#template"></use><use x="25" y="13" xlink:href="#template"></use><use x="26" y="13" xlink:href="#template"></use><use x="27" y="13" xlink:href="#template"></use><use x="30" y="13" xlink:href="#template"></use><use x="32" y="13" xlink:href="#template"></use><use x="0" y="14" xlink:href="#template"></use><use x="2" y="14" xlink:href="#template"></use><use x="4" y="14" xlink:href="#template"></use><use x="5" y="14" xlink:href="#template"></use><use x="6" y="14" xlink:href="#template"></use><use x="8" y="14" xlink:href="#template"></use><use x="10" y="14" xlink:href="#template"></use><use x="11" y="14" xlink:href="#template"></use><use x="16" y="14" xlink:href="#template"></use><use x="18" y="14" xlink:href="#template"></use><use x="19" y="14" xlink:href="#template"></use><use x="22" y="14" xlink:href="#template"></use><use x="24" y="14" xlink:href="#template"></use><use x="29" y="14" xlink:href="#template"></use><use x="30" y="14" xlink:href="#template"></use><use x="31" y="14" xlink:href="#template"></use><use x="0" y="15" xlink:href="#template"></use><use x="4" y="15" xlink:href="#template"></use><use x="5" y="15" xlink:href="#template"></use><use x="7" y="15" xlink:href="#template"></use><use x="10" y="15" xlink:href="#template"></use><use x="11" y="15" xlink:href="#template"></use><use x="15" y="15" xlink:href="#template"></use><use x="17" y="15" xlink:href="#template"></use><use x="18" y="15" xlink:href="#template"></use><use x="19" y="15" xlink:href="#template"></use><use x="20" y="15" xlink:href="#template"></use><use x="21" y="15" xlink:href="#template"></use><use x="22" y="15" xlink:href="#template"></use><use x="23" y="15" xlink:href="#template"></use><use x="24" y="15" xlink:href="#template"></use><use x="25" y="15" xlink:href="#template"></use><use x="27" y="15" xlink:href="#template"></use><use x="30" y="15" xlink:href="#template"></use><use x="31" y="15" xlink:href="#template"></use><use x="0" y="16" xlink:href="#template"></use><use x="1" y="16" xlink:href="#template"></use><use x="2" y="16" xlink:href="#template"></use><use x="4" y="16" xlink:href="#template"></use><use x="6" y="16" xlink:href="#template"></use><use x="7" y="16" xlink:href="#template"></use><use x="8" y="16" xlink:href="#template"></use><use x="13" y="16" xlink:href="#template"></use><use x="15" y="16" xlink:href="#template"></use><use x="16" y="16" xlink:href="#template"></use><use x="18" y="16" xlink:href="#template"></use><use x="19" y="16" xlink:href="#template"></use><use x="25" y="16" xlink:href="#template"></use><use x="27" y="16" xlink:href="#template"></use><use x="28" y="16" xlink:href="#template"></use><use x="29" y="16" xlink:href="#template"></use><use x="30" y="16" xlink:href="#template"></use><use x="32" y="16" xlink:href="#template"></use><use x="0" y="17" xlink:href="#template"></use><use x="1" y="17" xlink:href="#template"></use><use x="2" y="17" xlink:href="#template"></use><use x="4" y="17" xlink:href="#template"></use><use x="7" y="17" xlink:href="#template"></use><use x="9" y="17" xlink:href="#template"></use><use x="10" y="17" xlink:href="#template"></use><use x="11" y="17" xlink:href="#template"></use><use x="12" y="17" xlink:href="#template"></use><use x="13" y="17" xlink:href="#template"></use><use x="14" y="17" xlink:href="#template"></use><use x="17" y="17" xlink:href="#template"></use><use x="19" y="17" xlink:href="#template"></use><use x="20" y="17" xlink:href="#template"></use><use x="21" y="17" xlink:href="#template"></use><use x="23" y="17" xlink:href="#template"></use><use x="24" y="17" xlink:href="#template"></use><use x="25" y="17" xlink:href="#template"></use><use x="26" y="17" xlink:href="#template"></use><use x="1" y="18" xlink:href="#template"></use><use x="2" y="18" xlink:href="#template"></use><use x="3" y="18" xlink:href="#template"></use><use x="4" y="18" xlink:href="#template"></use><use x="6" y="18" xlink:href="#template"></use><use x="9" y="18" xlink:href="#template"></use><use x="10" y="18" xlink:href="#template"></use><use x="12" y="18" xlink:href="#template"></use><use x="15" y="18" xlink:href="#template"></use><use x="16" y="18" xlink:href="#template"></use><use x="18" y="18" xlink:href="#template"></use><use x="25" y="18" xlink:href="#template"></use><use x="26" y="18" xlink:href="#template"></use><use x="27" y="18" xlink:href="#template"></use><use x="28" y="18" xlink:href="#template"></use><use x="30" y="18" xlink:href="#template"></use><use x="31" y="18" xlink:href="#template"></use><use x="32" y="18" xlink:href="#template"></use><use x="1" y="19" xlink:href="#template"></use><use x="4" y="19" xlink:href="#template"></use><use x="8" y="19" xlink:href="#template"></use><use x="9" y="19" xlink:href="#template"></use><use x="12" y="19" xlink:href="#template"></use><use x="16" y="19" xlink:href="#template"></use><use x="17" y="19" xlink:href="#template"></use><use x="19" y="19" xlink:href="#template"></use><use x="21" y="19" xlink:href="#template"></use><use x="22" y="19" xlink:href="#template"></use><use x="23" y="19" xlink:href="#template"></use><use x="24" y="19" xlink:href="#template"></use><use x="26" y="19" xlink:href="#template"></use><use x="27" y="19" xlink:href="#template"></use><use x="29" y="19" xlink:href="#template"></use><use x="30" y="19" xlink:href="#template"></use><use x="32" y="19" xlink:href="#template"></use><use x="1" y="20" xlink:href="#template"></use><use x="2" y="20" xlink:href="#template"></use><use x="6" y="20" xlink:href="#template"></use><use x="13" y="20" xlink:href="#template"></use><use x="15" y="20" xlink:href="#template"></use><use x="17" y="20" xlink:href="#template"></use><use x="18" y="20" xlink:href="#template"></use><use x="22" y="20" xlink:href="#template"></use><use x="25" y="20" xlink:href="#template"></use><use x="26" y="20" xlink:href="#template"></use><use x="27" y="20" xlink:href="#template"></use><use x="28" y="20" xlink:href="#template"></use><use x="29" y="20" xlink:href="#template"></use><use x="31" y="20" xlink:href="#template"></use><use x="32" y="20" xlink:href="#template"></use><use x="0" y="21" xlink:href="#template"></use><use x="2" y="21" xlink:href="#template"></use><use x="4" y="21" xlink:href="#template"></use><use x="5" y="21" xlink:href="#template"></use><use x="8" y="21" xlink:href="#template"></use><use x="11" y="21" xlink:href="#template"></use><use x="12" y="21" xlink:href="#template"></use><use x="13" y="21" xlink:href="#template"></use><use x="14" y="21" xlink:href="#template"></use><use x="17" y="21" xlink:href="#template"></use><use x="20" y="21" xlink:href="#template"></use><use x="21" y="21" xlink:href="#template"></use><use x="24" y="21" xlink:href="#template"></use><use x="32" y="21" xlink:href="#template"></use><use x="0" y="22" xlink:href="#template"></use><use x="2" y="22" xlink:href="#template"></use><use x="4" y="22" xlink:href="#template"></use><use x="5" y="22" xlink:href="#template"></use><use x="6" y="22" xlink:href="#template"></use><use x="10" y="22" xlink:href="#template"></use><use x="12" y="22" xlink:href="#template"></use><use x="16" y="22" xlink:href="#template"></use><use x="17" y="22" xlink:href="#template"></use><use x="18" y="22" xlink:href="#template"></use><use x="20" y="22" xlink:href="#template"></use><use x="22" y="22" xlink:href="#template"></use><use x="27" y="22" xlink:href="#template"></use><use x="29" y="22" xlink:href="#template"></use><use x="30" y="22" xlink:href="#template"></use><use x="31" y="22" xlink:href="#template"></use><use x="0" y="23" xlink:href="#template"></use><use x="2" y="23" xlink:href="#template"></use><use x="3" y="23" xlink:href="#template"></use><use x="5" y="23" xlink:href="#template"></use><use x="8" y="23" xlink:href="#template"></use><use x="9" y="23" xlink:href="#template"></use><use x="13" y="23" xlink:href="#template"></use><use x="14" y="23" xlink:href="#template"></use><use x="17" y="23" xlink:href="#template"></use><use x="19" y="23" xlink:href="#template"></use><use x="20" y="23" xlink:href="#template"></use><use x="21" y="23" xlink:href="#template"></use><use x="22" y="23" xlink:href="#template"></use><use x="24" y="23" xlink:href="#template"></use><use x="29" y="23" xlink:href="#template"></use><use x="30" y="23" xlink:href="#template"></use><use x="31" y="23" xlink:href="#template"></use><use x="32" y="23" xlink:href="#template"></use><use x="0" y="24" xlink:href="#template"></use><use x="3" y="24" xlink:href="#template"></use><use x="4" y="24" xlink:href="#template"></use><use x="5" y="24" xlink:href="#template"></use><use x="6" y="24" xlink:href="#template"></use><use x="7" y="24" xlink:href="#template"></use><use x="8" y="24" xlink:href="#template"></use><use x="9" y="24" xlink:href="#template"></use><use x="13" y="24" xlink:href="#template"></use><use x="14" y="24" xlink:href="#template"></use><use x="15" y="24" xlink:href="#template"></use><use x="18" y="24" xlink:href="#template"></use><use x="20" y="24" xlink:href="#template"></use><use x="21" y="24" xlink:href="#template"></use><use x="24" y="24" xlink:href="#template"></use><use x="25" y="24" xlink:href="#template"></use><use x="26" y="24" xlink:href="#template"></use><use x="27" y="24" xlink:href="#template"></use><use x="28" y="24" xlink:href="#template"></use><use x="29" y="24" xlink:href="#template"></use><use x="31" y="24" xlink:href="#template"></use><use x="32" y="24" xlink:href="#template"></use><use x="8" y="25" xlink:href="#template"></use><use x="9" y="25" xlink:href="#template"></use><use x="11" y="25" xlink:href="#template"></use><use x="12" y="25" xlink:href="#template"></use><use x="14" y="25" xlink:href="#template"></use><use x="15" y="25" xlink:href="#template"></use><use x="16" y="25" xlink:href="#template"></use><use x="19" y="25" xlink:href="#template"></use><use x="20" y="25" xlink:href="#template"></use><use x="23" y="25" xlink:href="#template"></use><use x="24" y="25" xlink:href="#template"></use><use x="28" y="25" xlink:href="#template"></use><use x="29" y="25" xlink:href="#template"></use><use x="32" y="25" xlink:href="#template"></use><use x="0" y="26" xlink:href="#template"></use><use x="1" y="26" xlink:href="#template"></use><use x="2" y="26" xlink:href="#template"></use><use x="3" y="26" xlink:href="#template"></use><use x="4" y="26" xlink:href="#template"></use><use x="5" y="26" xlink:href="#template"></use><use x="6" y="26" xlink:href="#template"></use><use x="13" y="26" xlink:href="#template"></use><use x="14" y="26" xlink:href="#template"></use><use x="15" y="26" xlink:href="#template"></use><use x="18" y="26" xlink:href="#template"></use><use x="20" y="26" xlink:href="#template"></use><use x="22" y="26" xlink:href="#template"></use><use x="23" y="26" xlink:href="#template"></use><use x="24" y="26" xlink:href="#template"></use><use x="26" y="26" xlink:href="#template"></use><use x="28" y="26" xlink:href="#template"></use><use x="29" y="26" xlink:href="#template"></use><use x="31" y="26" xlink:href="#template"></use><use x="0" y="27" xlink:href="#template"></use><use x="6" y="27" xlink:href="#template"></use><use x="9" y="27" xlink:href="#template"></use><use x="10" y="27" xlink:href="#template"></use><use x="12" y="27" xlink:href="#template"></use><use x="13" y="27" xlink:href="#template"></use><use x="15" y="27" xlink:href="#template"></use><use x="20" y="27" xlink:href="#template"></use><use x="23" y="27" xlink:href="#template"></use><use x="24" y="27" xlink:href="#template"></use><use x="28" y="27" xlink:href="#template"></use><use x="29" y="27" xlink:href="#template"></use><use x="30" y="27" xlink:href="#template"></use><use x="31" y="27" xlink:href="#template"></use><use x="32" y="27" xlink:href="#template"></use><use x="0" y="28" xlink:href="#template"></use><use x="2" y="28" xlink:href="#template"></use><use x="3" y="28" xlink:href="#template"></use><use x="4" y="28" xlink:href="#template"></use><use x="6" y="28" xlink:href="#template"></use><use x="8" y="28" xlink:href="#template"></use><use x="9" y="28" xlink:href="#template"></use><use x="10" y="28" xlink:href="#template"></use><use x="13" y="28" xlink:href="#template"></use><use x="14" y="28" xlink:href="#template"></use><use x="15" y="28" xlink:href="#template"></use><use x="16" y="28" xlink:href="#template"></use><use x="19" y="28" xlink:href="#template"></use><use x="21" y="28" xlink:href="#template"></use><use x="22" y="28" xlink:href="#template"></use><use x="24" y="28" xlink:href="#template"></use><use x="25" y="28" xlink:href="#template"></use><use x="26" y="28" xlink:href="#template"></use><use x="27" y="28" xlink:href="#template"></use><use x="28" y="28" xlink:href="#template"></use><use x="31" y="28" xlink:href="#template"></use><use x="32" y="28" xlink:href="#template"></use><use x="0" y="29" xlink:href="#template"></use><use x="2" y="29" xlink:href="#template"></use><use x="3" y="29" xlink:href="#template"></use><use x="4" y="29" xlink:href="#template"></use><use x="6" y="29" xlink:href="#template"></use><use x="8" y="29" xlink:href="#template"></use><use x="11" y="29" xlink:href="#template"></use><use x="12" y="29" xlink:href="#template"></use><use x="15" y="29" xlink:href="#template"></use><use x="16" y="29" xlink:href="#template"></use><use x="17" y="29" xlink:href="#template"></use><use x="19" y="29" xlink:href="#template"></use><use x="23" y="29" xlink:href="#template"></use><use x="25" y="29" xlink:href="#template"></use><use x="28" y="29" xlink:href="#template"></use><use x="29" y="29" xlink:href="#template"></use><use x="31" y="29" xlink:href="#template"></use><use x="0" y="30" xlink:href="#template"></use><use x="2" y="30" xlink:href="#template"></use><use x="3" y="30" xlink:href="#template"></use><use x="4" y="30" xlink:href="#template"></use><use x="6" y="30" xlink:href="#template"></use><use x="8" y="30" xlink:href="#template"></use><use x="9" y="30" xlink:href="#template"></use><use x="14" y="30" xlink:href="#template"></use><use x="15" y="30" xlink:href="#template"></use><use x="16" y="30" xlink:href="#template"></use><use x="17" y="30" xlink:href="#template"></use><use x="20" y="30" xlink:href="#template"></use><use x="21" y="30" xlink:href="#template"></use><use x="22" y="30" xlink:href="#template"></use><use x="24" y="30" xlink:href="#template"></use><use x="25" y="30" xlink:href="#template"></use><use x="26" y="30" xlink:href="#template"></use><use x="0" y="31" xlink:href="#template"></use><use x="6" y="31" xlink:href="#template"></use><use x="13" y="31" xlink:href="#template"></use><use x="14" y="31" xlink:href="#template"></use><use x="15" y="31" xlink:href="#template"></use><use x="19" y="31" xlink:href="#template"></use><use x="20" y="31" xlink:href="#template"></use><use x="21" y="31" xlink:href="#template"></use><use x="25" y="31" xlink:href="#template"></use><use x="27" y="31" xlink:href="#template"></use><use x="29" y="31" xlink:href="#template"></use><use x="0" y="32" xlink:href="#template"></use><use x="1" y="32" xlink:href="#template"></use><use x="2" y="32" xlink:href="#template"></use><use x="3" y="32" xlink:href="#template"></use><use x="4" y="32" xlink:href="#template"></use><use x="5" y="32" xlink:href="#template"></use><use x="6" y="32" xlink:href="#template"></use><use x="10" y="32" xlink:href="#template"></use><use x="11" y="32" xlink:href="#template"></use><use x="12" y="32" xlink:href="#template"></use><use x="15" y="32" xlink:href="#template"></use><use x="17" y="32" xlink:href="#template"></use><use x="18" y="32" xlink:href="#template"></use><use x="20" y="32" xlink:href="#template"></use><use x="21" y="32" xlink:href="#template"></use><use x="23" y="32" xlink:href="#template"></use><use x="24" y="32" xlink:href="#template"></use><use x="25" y="32" xlink:href="#template"></use><use x="30" y="32" xlink:href="#template"></use><use x="31" y="32" xlink:href="#template"></use></svg>